<?xml version="1.0" encoding="UTF-8" standalone="no"?>
<!DOCTYPE svg PUBLIC "-//W3C//DTD SVG 1.1//EN"
 "http://www.w3.org/Graphics/SVG/1.1/DTD/svg11.dtd">
<!-- Generated by graphviz version 2.40.1 (20161225.0304)
 -->
<!-- Title: %3 Pages: 1 -->
<svg width="1192pt" height="1282pt"
 viewBox="0.00 0.00 1192.00 1282.16" xmlns="http://www.w3.org/2000/svg" xmlns:xlink="http://www.w3.org/1999/xlink">
<g id="graph0" class="graph" transform="scale(1 1) rotate(0) translate(4 1278.1606)">
<title>%3</title>
<polygon fill="#ffffff" stroke="transparent" points="-4,4 -4,-1278.1606 1188,-1278.1606 1188,4 -4,4"/>
<g id="clust1" class="cluster">
<title>cluster0</title>
<polygon fill="none" stroke="#000000" points="8,-8 8,-1266.1606 1176,-1266.1606 1176,-8 8,-8"/>
</g>
<!-- node_0_0 -->
<g id="node1" class="node">
<title>node_0_0</title>
<ellipse fill="none" stroke="#000000" cx="364" cy="-1231.2905" rx="44.5955" ry="26.7407"/>
<text text-anchor="middle" x="364" y="-1235.0905" font-family="Times,serif" font-size="14.00" fill="#000000">Random</text>
<text text-anchor="middle" x="364" y="-1220.0905" font-family="Times,serif" font-size="14.00" fill="#000000">b[128]</text>
</g>
<!-- node_1_0 -->
<g id="node2" class="node">
<title>node_1_0</title>
<ellipse fill="none" stroke="#000000" cx="364" cy="-1130.9438" rx="55.7232" ry="37.4533"/>
<text text-anchor="middle" x="364" y="-1142.2438" font-family="Times,serif" font-size="14.00" fill="#000000">NOP</text>
<text text-anchor="middle" x="364" y="-1127.2438" font-family="Times,serif" font-size="14.00" fill="#000000">Send[0&#45;&gt;2]</text>
<text text-anchor="middle" x="364" y="-1112.2438" font-family="Times,serif" font-size="14.00" fill="#000000">b[128]</text>
</g>
<!-- node_0_0&#45;&gt;node_1_0 -->
<g id="edge1" class="edge">
<title>node_0_0&#45;&gt;node_1_0</title>
<path fill="none" stroke="#000000" d="M364,-1204.3995C364,-1196.4714 364,-1187.5468 364,-1178.7213"/>
<polygon fill="#000000" stroke="#000000" points="367.5001,-1178.472 364,-1168.472 360.5001,-1178.4721 367.5001,-1178.472"/>
</g>
<!-- node_7_0 -->
<g id="node8" class="node">
<title>node_7_0</title>
<ellipse fill="none" stroke="#000000" cx="516" cy="-1030.5971" rx="28.9828" ry="26.7407"/>
<text text-anchor="middle" x="516" y="-1034.3971" font-family="Times,serif" font-size="14.00" fill="#000000">PRF</text>
<text text-anchor="middle" x="516" y="-1019.3971" font-family="Times,serif" font-size="14.00" fill="#000000">i32</text>
</g>
<!-- node_1_0&#45;&gt;node_7_0 -->
<g id="edge4" class="edge">
<title>node_1_0&#45;&gt;node_7_0</title>
<path fill="none" stroke="#000000" d="M404.9035,-1105.1794C426.7444,-1091.272 453.9989,-1073.6767 478,-1057.4672 480.1092,-1056.0427 482.2747,-1054.5619 484.4507,-1053.0603"/>
<polygon fill="#000000" stroke="#000000" points="486.5971,-1055.8306 492.7985,-1047.2402 482.5936,-1050.0884 486.5971,-1055.8306"/>
</g>
<!-- node_18_0 -->
<g id="node19" class="node">
<title>node_18_0</title>
<ellipse fill="none" stroke="#000000" cx="288" cy="-1030.5971" rx="28.9828" ry="26.7407"/>
<text text-anchor="middle" x="288" y="-1034.3971" font-family="Times,serif" font-size="14.00" fill="#000000">PRF</text>
<text text-anchor="middle" x="288" y="-1019.3971" font-family="Times,serif" font-size="14.00" fill="#000000">i32</text>
</g>
<!-- node_1_0&#45;&gt;node_18_0 -->
<g id="edge18" class="edge">
<title>node_1_0&#45;&gt;node_18_0</title>
<path fill="none" stroke="#000000" d="M338.6931,-1097.5298C329.7284,-1085.6933 319.6989,-1072.4508 310.9421,-1060.8887"/>
<polygon fill="#000000" stroke="#000000" points="313.6518,-1058.6694 304.8241,-1052.8109 308.0716,-1062.8958 313.6518,-1058.6694"/>
</g>
<!-- node_29_0 -->
<g id="node30" class="node">
<title>node_29_0</title>
<ellipse fill="none" stroke="#000000" cx="364" cy="-1030.5971" rx="28.9828" ry="26.7407"/>
<text text-anchor="middle" x="364" y="-1034.3971" font-family="Times,serif" font-size="14.00" fill="#000000">PRF</text>
<text text-anchor="middle" x="364" y="-1019.3971" font-family="Times,serif" font-size="14.00" fill="#000000">i32</text>
</g>
<!-- node_1_0&#45;&gt;node_29_0 -->
<g id="edge32" class="edge">
<title>node_1_0&#45;&gt;node_29_0</title>
<path fill="none" stroke="#000000" d="M364,-1093.2929C364,-1084.9249 364,-1076.0605 364,-1067.7141"/>
<polygon fill="#000000" stroke="#000000" points="367.5001,-1067.4954 364,-1057.4954 360.5001,-1067.4954 367.5001,-1067.4954"/>
</g>
<!-- node_2_0 -->
<g id="node3" class="node">
<title>node_2_0</title>
<ellipse fill="none" stroke="#000000" cx="820" cy="-1231.2905" rx="44.5955" ry="26.7407"/>
<text text-anchor="middle" x="820" y="-1235.0905" font-family="Times,serif" font-size="14.00" fill="#000000">Random</text>
<text text-anchor="middle" x="820" y="-1220.0905" font-family="Times,serif" font-size="14.00" fill="#000000">b[128]</text>
</g>
<!-- node_3_0 -->
<g id="node4" class="node">
<title>node_3_0</title>
<ellipse fill="none" stroke="#000000" cx="820" cy="-1130.9438" rx="55.7232" ry="37.4533"/>
<text text-anchor="middle" x="820" y="-1142.2438" font-family="Times,serif" font-size="14.00" fill="#000000">NOP</text>
<text text-anchor="middle" x="820" y="-1127.2438" font-family="Times,serif" font-size="14.00" fill="#000000">Send[1&#45;&gt;0]</text>
<text text-anchor="middle" x="820" y="-1112.2438" font-family="Times,serif" font-size="14.00" fill="#000000">b[128]</text>
</g>
<!-- node_2_0&#45;&gt;node_3_0 -->
<g id="edge2" class="edge">
<title>node_2_0&#45;&gt;node_3_0</title>
<path fill="none" stroke="#000000" d="M820,-1204.3995C820,-1196.4714 820,-1187.5468 820,-1178.7213"/>
<polygon fill="#000000" stroke="#000000" points="823.5001,-1178.472 820,-1168.472 816.5001,-1178.4721 823.5001,-1178.472"/>
</g>
<!-- node_8_0 -->
<g id="node9" class="node">
<title>node_8_0</title>
<ellipse fill="none" stroke="#000000" cx="896" cy="-1030.5971" rx="28.9828" ry="26.7407"/>
<text text-anchor="middle" x="896" y="-1034.3971" font-family="Times,serif" font-size="14.00" fill="#000000">PRF</text>
<text text-anchor="middle" x="896" y="-1019.3971" font-family="Times,serif" font-size="14.00" fill="#000000">i32</text>
</g>
<!-- node_3_0&#45;&gt;node_8_0 -->
<g id="edge5" class="edge">
<title>node_3_0&#45;&gt;node_8_0</title>
<path fill="none" stroke="#000000" d="M845.3069,-1097.5298C854.2716,-1085.6933 864.3011,-1072.4508 873.0579,-1060.8887"/>
<polygon fill="#000000" stroke="#000000" points="875.9284,-1062.8958 879.1759,-1052.8109 870.3482,-1058.6694 875.9284,-1062.8958"/>
</g>
<!-- node_19_0 -->
<g id="node20" class="node">
<title>node_19_0</title>
<ellipse fill="none" stroke="#000000" cx="668" cy="-1030.5971" rx="28.9828" ry="26.7407"/>
<text text-anchor="middle" x="668" y="-1034.3971" font-family="Times,serif" font-size="14.00" fill="#000000">PRF</text>
<text text-anchor="middle" x="668" y="-1019.3971" font-family="Times,serif" font-size="14.00" fill="#000000">i32</text>
</g>
<!-- node_3_0&#45;&gt;node_19_0 -->
<g id="edge19" class="edge">
<title>node_3_0&#45;&gt;node_19_0</title>
<path fill="none" stroke="#000000" d="M779.0965,-1105.1794C757.2556,-1091.272 730.0011,-1073.6767 706,-1057.4672 703.8908,-1056.0427 701.7253,-1054.5619 699.5493,-1053.0603"/>
<polygon fill="#000000" stroke="#000000" points="701.4064,-1050.0884 691.2015,-1047.2402 697.4029,-1055.8306 701.4064,-1050.0884"/>
</g>
<!-- node_30_0 -->
<g id="node31" class="node">
<title>node_30_0</title>
<ellipse fill="none" stroke="#000000" cx="820" cy="-1030.5971" rx="28.9828" ry="26.7407"/>
<text text-anchor="middle" x="820" y="-1034.3971" font-family="Times,serif" font-size="14.00" fill="#000000">PRF</text>
<text text-anchor="middle" x="820" y="-1019.3971" font-family="Times,serif" font-size="14.00" fill="#000000">i32</text>
</g>
<!-- node_3_0&#45;&gt;node_30_0 -->
<g id="edge33" class="edge">
<title>node_3_0&#45;&gt;node_30_0</title>
<path fill="none" stroke="#000000" d="M820,-1093.2929C820,-1084.9249 820,-1076.0605 820,-1067.7141"/>
<polygon fill="#000000" stroke="#000000" points="823.5001,-1067.4954 820,-1057.4954 816.5001,-1067.4954 823.5001,-1067.4954"/>
</g>
<!-- node_4_0 -->
<g id="node5" class="node">
<title>node_4_0</title>
<ellipse fill="none" stroke="#000000" cx="592" cy="-1231.2905" rx="44.5955" ry="26.7407"/>
<text text-anchor="middle" x="592" y="-1235.0905" font-family="Times,serif" font-size="14.00" fill="#000000">Random</text>
<text text-anchor="middle" x="592" y="-1220.0905" font-family="Times,serif" font-size="14.00" fill="#000000">b[128]</text>
</g>
<!-- node_5_0 -->
<g id="node6" class="node">
<title>node_5_0</title>
<ellipse fill="none" stroke="#000000" cx="592" cy="-1130.9438" rx="55.7232" ry="37.4533"/>
<text text-anchor="middle" x="592" y="-1142.2438" font-family="Times,serif" font-size="14.00" fill="#000000">NOP</text>
<text text-anchor="middle" x="592" y="-1127.2438" font-family="Times,serif" font-size="14.00" fill="#000000">Send[2&#45;&gt;1]</text>
<text text-anchor="middle" x="592" y="-1112.2438" font-family="Times,serif" font-size="14.00" fill="#000000">b[128]</text>
</g>
<!-- node_4_0&#45;&gt;node_5_0 -->
<g id="edge3" class="edge">
<title>node_4_0&#45;&gt;node_5_0</title>
<path fill="none" stroke="#000000" d="M592,-1204.3995C592,-1196.4714 592,-1187.5468 592,-1178.7213"/>
<polygon fill="#000000" stroke="#000000" points="595.5001,-1178.472 592,-1168.472 588.5001,-1178.4721 595.5001,-1178.472"/>
</g>
<!-- node_9_0 -->
<g id="node10" class="node">
<title>node_9_0</title>
<ellipse fill="none" stroke="#000000" cx="744" cy="-1030.5971" rx="28.9828" ry="26.7407"/>
<text text-anchor="middle" x="744" y="-1034.3971" font-family="Times,serif" font-size="14.00" fill="#000000">PRF</text>
<text text-anchor="middle" x="744" y="-1019.3971" font-family="Times,serif" font-size="14.00" fill="#000000">i32</text>
</g>
<!-- node_5_0&#45;&gt;node_9_0 -->
<g id="edge6" class="edge">
<title>node_5_0&#45;&gt;node_9_0</title>
<path fill="none" stroke="#000000" d="M632.9035,-1105.1794C654.7444,-1091.272 681.9989,-1073.6767 706,-1057.4672 708.1092,-1056.0427 710.2747,-1054.5619 712.4507,-1053.0603"/>
<polygon fill="#000000" stroke="#000000" points="714.5971,-1055.8306 720.7985,-1047.2402 710.5936,-1050.0884 714.5971,-1055.8306"/>
</g>
<!-- node_20_0 -->
<g id="node21" class="node">
<title>node_20_0</title>
<ellipse fill="none" stroke="#000000" cx="440" cy="-1030.5971" rx="28.9828" ry="26.7407"/>
<text text-anchor="middle" x="440" y="-1034.3971" font-family="Times,serif" font-size="14.00" fill="#000000">PRF</text>
<text text-anchor="middle" x="440" y="-1019.3971" font-family="Times,serif" font-size="14.00" fill="#000000">i32</text>
</g>
<!-- node_5_0&#45;&gt;node_20_0 -->
<g id="edge20" class="edge">
<title>node_5_0&#45;&gt;node_20_0</title>
<path fill="none" stroke="#000000" d="M551.0965,-1105.1794C529.2556,-1091.272 502.0011,-1073.6767 478,-1057.4672 475.8908,-1056.0427 473.7253,-1054.5619 471.5493,-1053.0603"/>
<polygon fill="#000000" stroke="#000000" points="473.4064,-1050.0884 463.2015,-1047.2402 469.4029,-1055.8306 473.4064,-1050.0884"/>
</g>
<!-- node_31_0 -->
<g id="node32" class="node">
<title>node_31_0</title>
<ellipse fill="none" stroke="#000000" cx="592" cy="-1030.5971" rx="28.9828" ry="26.7407"/>
<text text-anchor="middle" x="592" y="-1034.3971" font-family="Times,serif" font-size="14.00" fill="#000000">PRF</text>
<text text-anchor="middle" x="592" y="-1019.3971" font-family="Times,serif" font-size="14.00" fill="#000000">i32</text>
</g>
<!-- node_5_0&#45;&gt;node_31_0 -->
<g id="edge34" class="edge">
<title>node_5_0&#45;&gt;node_31_0</title>
<path fill="none" stroke="#000000" d="M592,-1093.2929C592,-1084.9249 592,-1076.0605 592,-1067.7141"/>
<polygon fill="#000000" stroke="#000000" points="595.5001,-1067.4954 592,-1057.4954 588.5001,-1067.4954 595.5001,-1067.4954"/>
</g>
<!-- node_6_0 -->
<g id="node7" class="node">
<title>node_6_0</title>
<polygon fill="#4169e1" stroke="#4169e1" points="672,-959.857 618,-959.857 618,-921.857 672,-921.857 672,-959.857"/>
<text text-anchor="middle" x="645" y="-944.657" font-family="Times,serif" font-size="14.00" fill="#000000">Input</text>
<text text-anchor="middle" x="645" y="-929.657" font-family="Times,serif" font-size="14.00" fill="#000000">i32</text>
</g>
<!-- node_13_0 -->
<g id="node14" class="node">
<title>node_13_0</title>
<ellipse fill="none" stroke="#000000" cx="654" cy="-840.5103" rx="28.0702" ry="26.7407"/>
<text text-anchor="middle" x="654" y="-844.3103" font-family="Times,serif" font-size="14.00" fill="#000000">Add</text>
<text text-anchor="middle" x="654" y="-829.3103" font-family="Times,serif" font-size="14.00" fill="#000000">i32</text>
</g>
<!-- node_6_0&#45;&gt;node_13_0 -->
<g id="edge14" class="edge">
<title>node_6_0&#45;&gt;node_13_0</title>
<path fill="none" stroke="#000000" d="M646.7353,-921.5091C647.8559,-909.0152 649.3499,-892.3577 650.6916,-877.3982"/>
<polygon fill="#000000" stroke="#000000" points="654.1823,-877.6576 651.5896,-867.3849 647.2102,-877.0322 654.1823,-877.6576"/>
</g>
<!-- node_10_0 -->
<g id="node11" class="node">
<title>node_10_0</title>
<ellipse fill="none" stroke="#000000" cx="840" cy="-940.857" rx="43.6818" ry="26.7407"/>
<text text-anchor="middle" x="840" y="-944.657" font-family="Times,serif" font-size="14.00" fill="#000000">Subtract</text>
<text text-anchor="middle" x="840" y="-929.657" font-family="Times,serif" font-size="14.00" fill="#000000">i32</text>
</g>
<!-- node_7_0&#45;&gt;node_10_0 -->
<g id="edge7" class="edge">
<title>node_7_0&#45;&gt;node_10_0</title>
<path fill="none" stroke="#000000" d="M537.9056,-1012.5643C542.9436,-1009.1603 548.4572,-1005.9692 554,-1003.7271 651.138,-964.4339 687.2506,-999.8177 787,-967.7271 790.8132,-966.5003 794.6889,-965.0276 798.5204,-963.4116"/>
<polygon fill="#000000" stroke="#000000" points="800.2329,-966.4781 807.8929,-959.1586 797.3403,-960.1037 800.2329,-966.4781"/>
</g>
<!-- node_12_0 -->
<g id="node13" class="node">
<title>node_12_0</title>
<ellipse fill="none" stroke="#000000" cx="450" cy="-940.857" rx="43.6818" ry="26.7407"/>
<text text-anchor="middle" x="450" y="-944.657" font-family="Times,serif" font-size="14.00" fill="#000000">Subtract</text>
<text text-anchor="middle" x="450" y="-929.657" font-family="Times,serif" font-size="14.00" fill="#000000">i32</text>
</g>
<!-- node_7_0&#45;&gt;node_12_0 -->
<g id="edge12" class="edge">
<title>node_7_0&#45;&gt;node_12_0</title>
<path fill="none" stroke="#000000" d="M499.3454,-1007.9519C491.6632,-997.5064 482.3998,-984.911 473.9839,-973.4679"/>
<polygon fill="#000000" stroke="#000000" points="476.7846,-971.3685 468.0402,-965.3863 471.1455,-975.5159 476.7846,-971.3685"/>
</g>
<!-- node_8_0&#45;&gt;node_10_0 -->
<g id="edge8" class="edge">
<title>node_8_0&#45;&gt;node_10_0</title>
<path fill="none" stroke="#000000" d="M881.2867,-1007.019C875.1599,-997.2008 867.9283,-985.6121 861.2432,-974.8992"/>
<polygon fill="#000000" stroke="#000000" points="864.0558,-972.7952 855.7925,-966.1645 858.1172,-976.5011 864.0558,-972.7952"/>
</g>
<!-- node_11_0 -->
<g id="node12" class="node">
<title>node_11_0</title>
<ellipse fill="none" stroke="#000000" cx="1124" cy="-940.857" rx="43.6818" ry="26.7407"/>
<text text-anchor="middle" x="1124" y="-944.657" font-family="Times,serif" font-size="14.00" fill="#000000">Subtract</text>
<text text-anchor="middle" x="1124" y="-929.657" font-family="Times,serif" font-size="14.00" fill="#000000">i32</text>
</g>
<!-- node_8_0&#45;&gt;node_11_0 -->
<g id="edge9" class="edge">
<title>node_8_0&#45;&gt;node_11_0</title>
<path fill="none" stroke="#000000" d="M923.6903,-1021.833C958.5401,-1010.5344 1020.0102,-989.7107 1071,-967.7271 1074.4223,-966.2516 1077.9341,-964.6575 1081.442,-963.0076"/>
<polygon fill="#000000" stroke="#000000" points="1083.1752,-966.0573 1090.6544,-958.5531 1080.128,-959.7553 1083.1752,-966.0573"/>
</g>
<!-- node_9_0&#45;&gt;node_11_0 -->
<g id="edge10" class="edge">
<title>node_9_0&#45;&gt;node_11_0</title>
<path fill="none" stroke="#000000" d="M765.8566,-1012.4406C770.8977,-1009.0442 776.4248,-1005.8876 782,-1003.7271 902.6916,-956.9563 947.2136,-1005.5544 1071,-967.7271 1074.8308,-966.5564 1078.7187,-965.1228 1082.5584,-963.5328"/>
<polygon fill="#000000" stroke="#000000" points="1084.2541,-966.6081 1091.9434,-959.3194 1081.3871,-960.2222 1084.2541,-966.6081"/>
</g>
<!-- node_9_0&#45;&gt;node_12_0 -->
<g id="edge11" class="edge">
<title>node_9_0&#45;&gt;node_12_0</title>
<path fill="none" stroke="#000000" d="M722.0561,-1012.6575C717.0205,-1009.2476 711.5176,-1006.0306 706,-1003.7271 621.4434,-968.425 589.9099,-996.7565 503,-967.7271 499.2542,-966.4759 495.4435,-964.9981 491.6711,-963.3894"/>
<polygon fill="#000000" stroke="#000000" points="492.9824,-960.1406 482.4316,-959.1755 490.0777,-966.5095 492.9824,-960.1406"/>
</g>
<!-- node_10_0&#45;&gt;node_13_0 -->
<g id="edge13" class="edge">
<title>node_10_0&#45;&gt;node_13_0</title>
<path fill="none" stroke="#000000" d="M806.7469,-922.917C773.1264,-904.7788 721.4402,-876.8942 687.671,-858.6757"/>
<polygon fill="#000000" stroke="#000000" points="689.1141,-855.4774 678.6513,-853.8096 685.7904,-861.6381 689.1141,-855.4774"/>
</g>
<!-- node_15_0 -->
<g id="node16" class="node">
<title>node_15_0</title>
<ellipse fill="none" stroke="#000000" cx="1094" cy="-729.557" rx="55.7232" ry="37.4533"/>
<text text-anchor="middle" x="1094" y="-740.857" font-family="Times,serif" font-size="14.00" fill="#000000">NOP</text>
<text text-anchor="middle" x="1094" y="-725.857" font-family="Times,serif" font-size="14.00" fill="#000000">Send[1&#45;&gt;0]</text>
<text text-anchor="middle" x="1094" y="-710.857" font-family="Times,serif" font-size="14.00" fill="#000000">i32</text>
</g>
<!-- node_11_0&#45;&gt;node_15_0 -->
<g id="edge16" class="edge">
<title>node_11_0&#45;&gt;node_15_0</title>
<path fill="none" stroke="#000000" d="M1120.1394,-913.6658C1115.2418,-879.1701 1106.7145,-819.1091 1100.7348,-776.9927"/>
<polygon fill="#000000" stroke="#000000" points="1104.1822,-776.374 1099.3112,-766.9653 1097.2517,-777.358 1104.1822,-776.374"/>
</g>
<!-- node_16_0 -->
<g id="node17" class="node">
<title>node_16_0</title>
<ellipse fill="none" stroke="#000000" cx="474" cy="-729.557" rx="55.7232" ry="37.4533"/>
<text text-anchor="middle" x="474" y="-740.857" font-family="Times,serif" font-size="14.00" fill="#000000">NOP</text>
<text text-anchor="middle" x="474" y="-725.857" font-family="Times,serif" font-size="14.00" fill="#000000">Send[2&#45;&gt;1]</text>
<text text-anchor="middle" x="474" y="-710.857" font-family="Times,serif" font-size="14.00" fill="#000000">i32</text>
</g>
<!-- node_12_0&#45;&gt;node_16_0 -->
<g id="edge17" class="edge">
<title>node_12_0&#45;&gt;node_16_0</title>
<path fill="none" stroke="#000000" d="M453.0884,-913.6658C457.0066,-879.1701 463.8284,-819.1091 468.6121,-776.9927"/>
<polygon fill="#000000" stroke="#000000" points="472.1,-777.2965 469.7511,-766.9653 465.1448,-776.5064 472.1,-777.2965"/>
</g>
<!-- node_14_0 -->
<g id="node15" class="node">
<title>node_14_0</title>
<ellipse fill="none" stroke="#000000" cx="641" cy="-729.557" rx="55.7232" ry="37.4533"/>
<text text-anchor="middle" x="641" y="-740.857" font-family="Times,serif" font-size="14.00" fill="#000000">NOP</text>
<text text-anchor="middle" x="641" y="-725.857" font-family="Times,serif" font-size="14.00" fill="#000000">Send[0&#45;&gt;2]</text>
<text text-anchor="middle" x="641" y="-710.857" font-family="Times,serif" font-size="14.00" fill="#000000">i32</text>
</g>
<!-- node_13_0&#45;&gt;node_14_0 -->
<g id="edge15" class="edge">
<title>node_13_0&#45;&gt;node_14_0</title>
<path fill="none" stroke="#000000" d="M650.8531,-813.6516C649.5733,-802.7286 648.0546,-789.7674 646.5977,-777.3326"/>
<polygon fill="#000000" stroke="#000000" points="650.035,-776.5922 645.395,-767.0675 643.0825,-777.4069 650.035,-776.5922"/>
</g>
<!-- node_39_0 -->
<g id="node40" class="node">
<title>node_39_0</title>
<ellipse fill="none" stroke="#000000" cx="552" cy="-629.2102" rx="35.2113" ry="26.7407"/>
<text text-anchor="middle" x="552" y="-633.0102" font-family="Times,serif" font-size="14.00" fill="#000000">Stack</text>
<text text-anchor="middle" x="552" y="-618.0102" font-family="Times,serif" font-size="14.00" fill="#000000">i32[3]</text>
</g>
<!-- node_14_0&#45;&gt;node_39_0 -->
<g id="edge46" class="edge">
<title>node_14_0&#45;&gt;node_39_0</title>
<path fill="none" stroke="#000000" d="M612.3499,-697.2543C601.512,-685.0345 589.2311,-671.188 578.5902,-659.1904"/>
<polygon fill="#000000" stroke="#000000" points="581.12,-656.768 571.866,-651.609 575.883,-661.4128 581.12,-656.768"/>
</g>
<!-- node_40_0 -->
<g id="node41" class="node">
<title>node_40_0</title>
<ellipse fill="none" stroke="#000000" cx="973" cy="-629.2102" rx="35.2113" ry="26.7407"/>
<text text-anchor="middle" x="973" y="-633.0102" font-family="Times,serif" font-size="14.00" fill="#000000">Stack</text>
<text text-anchor="middle" x="973" y="-618.0102" font-family="Times,serif" font-size="14.00" fill="#000000">i32[3]</text>
</g>
<!-- node_15_0&#45;&gt;node_40_0 -->
<g id="edge49" class="edge">
<title>node_15_0&#45;&gt;node_40_0</title>
<path fill="none" stroke="#000000" d="M1058.6765,-700.2628C1041.6518,-686.144 1021.3898,-669.3405 1004.8454,-655.62"/>
<polygon fill="#000000" stroke="#000000" points="1006.9843,-652.8469 997.0526,-649.1574 1002.5158,-658.2351 1006.9843,-652.8469"/>
</g>
<!-- node_41_0 -->
<g id="node42" class="node">
<title>node_41_0</title>
<ellipse fill="none" stroke="#000000" cx="241" cy="-629.2102" rx="35.2113" ry="26.7407"/>
<text text-anchor="middle" x="241" y="-633.0102" font-family="Times,serif" font-size="14.00" fill="#000000">Stack</text>
<text text-anchor="middle" x="241" y="-618.0102" font-family="Times,serif" font-size="14.00" fill="#000000">i32[3]</text>
</g>
<!-- node_16_0&#45;&gt;node_41_0 -->
<g id="edge52" class="edge">
<title>node_16_0&#45;&gt;node_41_0</title>
<path fill="none" stroke="#000000" d="M432.584,-704.3272C424.8633,-700.0132 416.7763,-695.7465 409,-692.0803 367.4668,-672.4993 318.0461,-654.6182 283.6013,-642.9745"/>
<polygon fill="#000000" stroke="#000000" points="284.4546,-639.5693 273.8607,-639.713 282.232,-646.207 284.4546,-639.5693"/>
</g>
<!-- node_17_0 -->
<g id="node18" class="node">
<title>node_17_0</title>
<polygon fill="#4169e1" stroke="#4169e1" points="956,-959.857 902,-959.857 902,-921.857 956,-921.857 956,-959.857"/>
<text text-anchor="middle" x="929" y="-944.657" font-family="Times,serif" font-size="14.00" fill="#000000">Input</text>
<text text-anchor="middle" x="929" y="-929.657" font-family="Times,serif" font-size="14.00" fill="#000000">i32</text>
</g>
<!-- node_24_0 -->
<g id="node25" class="node">
<title>node_24_0</title>
<ellipse fill="none" stroke="#000000" cx="916" cy="-840.5103" rx="28.0702" ry="26.7407"/>
<text text-anchor="middle" x="916" y="-844.3103" font-family="Times,serif" font-size="14.00" fill="#000000">Add</text>
<text text-anchor="middle" x="916" y="-829.3103" font-family="Times,serif" font-size="14.00" fill="#000000">i32</text>
</g>
<!-- node_17_0&#45;&gt;node_24_0 -->
<g id="edge28" class="edge">
<title>node_17_0&#45;&gt;node_24_0</title>
<path fill="none" stroke="#000000" d="M926.4935,-921.5091C924.8749,-909.0152 922.7169,-892.3577 920.7789,-877.3982"/>
<polygon fill="#000000" stroke="#000000" points="924.2375,-876.8523 919.4816,-867.3849 917.2955,-877.7517 924.2375,-876.8523"/>
</g>
<!-- node_21_0 -->
<g id="node22" class="node">
<title>node_21_0</title>
<ellipse fill="none" stroke="#000000" cx="344" cy="-940.857" rx="43.6818" ry="26.7407"/>
<text text-anchor="middle" x="344" y="-944.657" font-family="Times,serif" font-size="14.00" fill="#000000">Subtract</text>
<text text-anchor="middle" x="344" y="-929.657" font-family="Times,serif" font-size="14.00" fill="#000000">i32</text>
</g>
<!-- node_18_0&#45;&gt;node_21_0 -->
<g id="edge21" class="edge">
<title>node_18_0&#45;&gt;node_21_0</title>
<path fill="none" stroke="#000000" d="M302.7133,-1007.019C308.8401,-997.2008 316.0717,-985.6121 322.7568,-974.8992"/>
<polygon fill="#000000" stroke="#000000" points="325.8828,-976.5011 328.2075,-966.1645 319.9442,-972.7952 325.8828,-976.5011"/>
</g>
<!-- node_23_0 -->
<g id="node24" class="node">
<title>node_23_0</title>
<ellipse fill="none" stroke="#000000" cx="60" cy="-940.857" rx="43.6818" ry="26.7407"/>
<text text-anchor="middle" x="60" y="-944.657" font-family="Times,serif" font-size="14.00" fill="#000000">Subtract</text>
<text text-anchor="middle" x="60" y="-929.657" font-family="Times,serif" font-size="14.00" fill="#000000">i32</text>
</g>
<!-- node_18_0&#45;&gt;node_23_0 -->
<g id="edge26" class="edge">
<title>node_18_0&#45;&gt;node_23_0</title>
<path fill="none" stroke="#000000" d="M260.3097,-1021.833C225.4599,-1010.5344 163.9898,-989.7107 113,-967.7271 109.5777,-966.2516 106.0659,-964.6575 102.558,-963.0076"/>
<polygon fill="#000000" stroke="#000000" points="103.872,-959.7553 93.3456,-958.5531 100.8248,-966.0573 103.872,-959.7553"/>
</g>
<!-- node_19_0&#45;&gt;node_21_0 -->
<g id="edge22" class="edge">
<title>node_19_0&#45;&gt;node_21_0</title>
<path fill="none" stroke="#000000" d="M646.0944,-1012.5643C641.0564,-1009.1603 635.5428,-1005.9692 630,-1003.7271 532.862,-964.4339 496.7494,-999.8177 397,-967.7271 393.1868,-966.5003 389.3111,-965.0276 385.4796,-963.4116"/>
<polygon fill="#000000" stroke="#000000" points="386.6597,-960.1037 376.1071,-959.1586 383.7671,-966.4781 386.6597,-960.1037"/>
</g>
<!-- node_22_0 -->
<g id="node23" class="node">
<title>node_22_0</title>
<ellipse fill="none" stroke="#000000" cx="734" cy="-940.857" rx="43.6818" ry="26.7407"/>
<text text-anchor="middle" x="734" y="-944.657" font-family="Times,serif" font-size="14.00" fill="#000000">Subtract</text>
<text text-anchor="middle" x="734" y="-929.657" font-family="Times,serif" font-size="14.00" fill="#000000">i32</text>
</g>
<!-- node_19_0&#45;&gt;node_22_0 -->
<g id="edge23" class="edge">
<title>node_19_0&#45;&gt;node_22_0</title>
<path fill="none" stroke="#000000" d="M684.6546,-1007.9519C692.3368,-997.5064 701.6002,-984.911 710.0161,-973.4679"/>
<polygon fill="#000000" stroke="#000000" points="712.8545,-975.5159 715.9598,-965.3863 707.2154,-971.3685 712.8545,-975.5159"/>
</g>
<!-- node_20_0&#45;&gt;node_22_0 -->
<g id="edge24" class="edge">
<title>node_20_0&#45;&gt;node_22_0</title>
<path fill="none" stroke="#000000" d="M461.9439,-1012.6575C466.9795,-1009.2476 472.4824,-1006.0306 478,-1003.7271 562.5566,-968.425 594.0901,-996.7565 681,-967.7271 684.7458,-966.4759 688.5565,-964.9981 692.3289,-963.3894"/>
<polygon fill="#000000" stroke="#000000" points="693.9223,-966.5095 701.5684,-959.1755 691.0176,-960.1406 693.9223,-966.5095"/>
</g>
<!-- node_20_0&#45;&gt;node_23_0 -->
<g id="edge25" class="edge">
<title>node_20_0&#45;&gt;node_23_0</title>
<path fill="none" stroke="#000000" d="M418.1434,-1012.4406C413.1023,-1009.0442 407.5752,-1005.8876 402,-1003.7271 281.3084,-956.9563 236.7864,-1005.5544 113,-967.7271 109.1692,-966.5564 105.2813,-965.1228 101.4416,-963.5328"/>
<polygon fill="#000000" stroke="#000000" points="102.6129,-960.2222 92.0566,-959.3194 99.7459,-966.6081 102.6129,-960.2222"/>
</g>
<!-- node_25_0 -->
<g id="node26" class="node">
<title>node_25_0</title>
<ellipse fill="none" stroke="#000000" cx="344" cy="-729.557" rx="55.7232" ry="37.4533"/>
<text text-anchor="middle" x="344" y="-740.857" font-family="Times,serif" font-size="14.00" fill="#000000">NOP</text>
<text text-anchor="middle" x="344" y="-725.857" font-family="Times,serif" font-size="14.00" fill="#000000">Send[0&#45;&gt;2]</text>
<text text-anchor="middle" x="344" y="-710.857" font-family="Times,serif" font-size="14.00" fill="#000000">i32</text>
</g>
<!-- node_21_0&#45;&gt;node_25_0 -->
<g id="edge29" class="edge">
<title>node_21_0&#45;&gt;node_25_0</title>
<path fill="none" stroke="#000000" d="M344,-913.6658C344,-879.2731 344,-819.4674 344,-777.3704"/>
<polygon fill="#000000" stroke="#000000" points="347.5001,-777.3427 344,-767.3427 340.5001,-777.3427 347.5001,-777.3427"/>
</g>
<!-- node_22_0&#45;&gt;node_24_0 -->
<g id="edge27" class="edge">
<title>node_22_0&#45;&gt;node_24_0</title>
<path fill="none" stroke="#000000" d="M766.9588,-922.685C799.7304,-904.6161 849.7383,-877.044 882.6472,-858.8995"/>
<polygon fill="#000000" stroke="#000000" points="884.3801,-861.9409 891.4473,-854.0476 881.0002,-855.8109 884.3801,-861.9409"/>
</g>
<!-- node_27_0 -->
<g id="node28" class="node">
<title>node_27_0</title>
<ellipse fill="none" stroke="#000000" cx="89" cy="-840.5103" rx="55.7232" ry="37.4533"/>
<text text-anchor="middle" x="89" y="-851.8103" font-family="Times,serif" font-size="14.00" fill="#000000">NOP</text>
<text text-anchor="middle" x="89" y="-836.8103" font-family="Times,serif" font-size="14.00" fill="#000000">Send[2&#45;&gt;1]</text>
<text text-anchor="middle" x="89" y="-821.8103" font-family="Times,serif" font-size="14.00" fill="#000000">i32</text>
</g>
<!-- node_23_0&#45;&gt;node_27_0 -->
<g id="edge31" class="edge">
<title>node_23_0&#45;&gt;node_27_0</title>
<path fill="none" stroke="#000000" d="M67.6953,-914.2294C70.086,-905.9572 72.7958,-896.5807 75.462,-887.355"/>
<polygon fill="#000000" stroke="#000000" points="78.9068,-888.0413 78.3208,-877.4627 72.182,-886.0978 78.9068,-888.0413"/>
</g>
<!-- node_26_0 -->
<g id="node27" class="node">
<title>node_26_0</title>
<ellipse fill="none" stroke="#000000" cx="929" cy="-729.557" rx="55.7232" ry="37.4533"/>
<text text-anchor="middle" x="929" y="-740.857" font-family="Times,serif" font-size="14.00" fill="#000000">NOP</text>
<text text-anchor="middle" x="929" y="-725.857" font-family="Times,serif" font-size="14.00" fill="#000000">Send[1&#45;&gt;0]</text>
<text text-anchor="middle" x="929" y="-710.857" font-family="Times,serif" font-size="14.00" fill="#000000">i32</text>
</g>
<!-- node_24_0&#45;&gt;node_26_0 -->
<g id="edge30" class="edge">
<title>node_24_0&#45;&gt;node_26_0</title>
<path fill="none" stroke="#000000" d="M919.1469,-813.6516C920.4267,-802.7286 921.9454,-789.7674 923.4023,-777.3326"/>
<polygon fill="#000000" stroke="#000000" points="926.9175,-777.4069 924.605,-767.0675 919.965,-776.5922 926.9175,-777.4069"/>
</g>
<!-- node_25_0&#45;&gt;node_39_0 -->
<g id="edge47" class="edge">
<title>node_25_0&#45;&gt;node_39_0</title>
<path fill="none" stroke="#000000" d="M385.9414,-704.4876C393.5373,-700.2026 401.4458,-695.9044 409,-692.0803 442.8038,-674.9681 482.3006,-657.8091 511.2092,-645.7508"/>
<polygon fill="#000000" stroke="#000000" points="512.6863,-648.9274 520.5835,-641.8645 510.0055,-642.461 512.6863,-648.9274"/>
</g>
<!-- node_26_0&#45;&gt;node_40_0 -->
<g id="edge50" class="edge">
<title>node_26_0&#45;&gt;node_40_0</title>
<path fill="none" stroke="#000000" d="M944.885,-693.3295C949.0139,-683.9131 953.455,-673.7848 957.5605,-664.4216"/>
<polygon fill="#000000" stroke="#000000" points="960.88,-665.5669 961.6903,-655.0031 954.4692,-662.7559 960.88,-665.5669"/>
</g>
<!-- node_27_0&#45;&gt;node_41_0 -->
<g id="edge53" class="edge">
<title>node_27_0&#45;&gt;node_41_0</title>
<path fill="none" stroke="#000000" d="M97.5453,-803.2185C106.3239,-771.148 122.5092,-724.9914 149,-692.0803 163.2549,-674.3706 183.809,-659.6719 201.8752,-648.9516"/>
<polygon fill="#000000" stroke="#000000" points="204.1007,-651.7113 211.0493,-643.7134 200.6297,-645.6324 204.1007,-651.7113"/>
</g>
<!-- node_28_0 -->
<g id="node29" class="node">
<title>node_28_0</title>
<polygon fill="#4169e1" stroke="#4169e1" points="282,-959.857 228,-959.857 228,-921.857 282,-921.857 282,-959.857"/>
<text text-anchor="middle" x="255" y="-944.657" font-family="Times,serif" font-size="14.00" fill="#000000">Input</text>
<text text-anchor="middle" x="255" y="-929.657" font-family="Times,serif" font-size="14.00" fill="#000000">i32</text>
</g>
<!-- node_35_0 -->
<g id="node36" class="node">
<title>node_35_0</title>
<ellipse fill="none" stroke="#000000" cx="214" cy="-840.5103" rx="28.0702" ry="26.7407"/>
<text text-anchor="middle" x="214" y="-844.3103" font-family="Times,serif" font-size="14.00" fill="#000000">Add</text>
<text text-anchor="middle" x="214" y="-829.3103" font-family="Times,serif" font-size="14.00" fill="#000000">i32</text>
</g>
<!-- node_28_0&#45;&gt;node_35_0 -->
<g id="edge42" class="edge">
<title>node_28_0&#45;&gt;node_35_0</title>
<path fill="none" stroke="#000000" d="M247.0948,-921.5091C241.7376,-908.3976 234.507,-890.7007 228.1708,-875.193"/>
<polygon fill="#000000" stroke="#000000" points="231.3883,-873.8139 224.3659,-865.8806 224.9083,-876.4616 231.3883,-873.8139"/>
</g>
<!-- node_32_0 -->
<g id="node33" class="node">
<title>node_32_0</title>
<ellipse fill="none" stroke="#000000" cx="556" cy="-940.857" rx="43.6818" ry="26.7407"/>
<text text-anchor="middle" x="556" y="-944.657" font-family="Times,serif" font-size="14.00" fill="#000000">Subtract</text>
<text text-anchor="middle" x="556" y="-929.657" font-family="Times,serif" font-size="14.00" fill="#000000">i32</text>
</g>
<!-- node_29_0&#45;&gt;node_32_0 -->
<g id="edge35" class="edge">
<title>node_29_0&#45;&gt;node_32_0</title>
<path fill="none" stroke="#000000" d="M386.2641,-1013.3426C391.2798,-1009.8901 396.6936,-1006.4825 402,-1003.7271 444.2932,-981.7658 459.2152,-986.5394 503,-967.7271 506.4241,-966.2559 509.9372,-964.6648 513.4461,-963.0171"/>
<polygon fill="#000000" stroke="#000000" points="515.178,-966.0675 522.66,-958.5662 512.1331,-959.7643 515.178,-966.0675"/>
</g>
<!-- node_34_0 -->
<g id="node35" class="node">
<title>node_34_0</title>
<ellipse fill="none" stroke="#000000" cx="166" cy="-940.857" rx="43.6818" ry="26.7407"/>
<text text-anchor="middle" x="166" y="-944.657" font-family="Times,serif" font-size="14.00" fill="#000000">Subtract</text>
<text text-anchor="middle" x="166" y="-929.657" font-family="Times,serif" font-size="14.00" fill="#000000">i32</text>
</g>
<!-- node_29_0&#45;&gt;node_34_0 -->
<g id="edge40" class="edge">
<title>node_29_0&#45;&gt;node_34_0</title>
<path fill="none" stroke="#000000" d="M341.7729,-1013.2707C336.7549,-1009.8226 331.3308,-1006.435 326,-1003.7271 281.2659,-981.0028 265.2749,-987.1221 219,-967.7271 215.5629,-966.2865 212.0405,-964.7174 208.5252,-963.0848"/>
<polygon fill="#000000" stroke="#000000" points="209.8305,-959.8291 199.3004,-958.6594 206.8027,-966.1404 209.8305,-959.8291"/>
</g>
<!-- node_30_0&#45;&gt;node_32_0 -->
<g id="edge36" class="edge">
<title>node_30_0&#45;&gt;node_32_0</title>
<path fill="none" stroke="#000000" d="M798.0035,-1012.7811C792.9711,-1009.3636 787.4828,-1006.1122 782,-1003.7271 709.9831,-972.3987 683.1134,-993.7097 609,-967.7271 605.2732,-966.4205 601.4758,-964.9039 597.7123,-963.2692"/>
<polygon fill="#000000" stroke="#000000" points="599.0332,-960.0241 588.4865,-959.0151 596.102,-966.3809 599.0332,-960.0241"/>
</g>
<!-- node_33_0 -->
<g id="node34" class="node">
<title>node_33_0</title>
<ellipse fill="none" stroke="#000000" cx="1018" cy="-940.857" rx="43.6818" ry="26.7407"/>
<text text-anchor="middle" x="1018" y="-944.657" font-family="Times,serif" font-size="14.00" fill="#000000">Subtract</text>
<text text-anchor="middle" x="1018" y="-929.657" font-family="Times,serif" font-size="14.00" fill="#000000">i32</text>
</g>
<!-- node_30_0&#45;&gt;node_33_0 -->
<g id="edge37" class="edge">
<title>node_30_0&#45;&gt;node_33_0</title>
<path fill="none" stroke="#000000" d="M842.2271,-1013.2707C847.2451,-1009.8226 852.6692,-1006.435 858,-1003.7271 902.7341,-981.0028 918.7251,-987.1221 965,-967.7271 968.4371,-966.2865 971.9595,-964.7174 975.4748,-963.0848"/>
<polygon fill="#000000" stroke="#000000" points="977.1973,-966.1404 984.6996,-958.6594 974.1695,-959.8291 977.1973,-966.1404"/>
</g>
<!-- node_31_0&#45;&gt;node_33_0 -->
<g id="edge38" class="edge">
<title>node_31_0&#45;&gt;node_33_0</title>
<path fill="none" stroke="#000000" d="M613.8292,-1012.3691C618.872,-1008.9772 624.4068,-1005.8404 630,-1003.7271 770.08,-950.798 821.4271,-1010.2796 965,-967.7271 968.8405,-966.5888 972.7353,-965.1777 976.5795,-963.6027"/>
<polygon fill="#000000" stroke="#000000" points="978.2653,-966.6831 985.9713,-959.4121 975.4129,-960.2906 978.2653,-966.6831"/>
</g>
<!-- node_31_0&#45;&gt;node_34_0 -->
<g id="edge39" class="edge">
<title>node_31_0&#45;&gt;node_34_0</title>
<path fill="none" stroke="#000000" d="M570.1708,-1012.3691C565.128,-1008.9772 559.5932,-1005.8404 554,-1003.7271 413.92,-950.798 362.5729,-1010.2796 219,-967.7271 215.1595,-966.5888 211.2647,-965.1777 207.4205,-963.6027"/>
<polygon fill="#000000" stroke="#000000" points="208.5871,-960.2906 198.0287,-959.4121 205.7347,-966.6831 208.5871,-960.2906"/>
</g>
<!-- node_36_0 -->
<g id="node37" class="node">
<title>node_36_0</title>
<ellipse fill="none" stroke="#000000" cx="552" cy="-840.5103" rx="55.7232" ry="37.4533"/>
<text text-anchor="middle" x="552" y="-851.8103" font-family="Times,serif" font-size="14.00" fill="#000000">NOP</text>
<text text-anchor="middle" x="552" y="-836.8103" font-family="Times,serif" font-size="14.00" fill="#000000">Send[0&#45;&gt;2]</text>
<text text-anchor="middle" x="552" y="-821.8103" font-family="Times,serif" font-size="14.00" fill="#000000">i32</text>
</g>
<!-- node_32_0&#45;&gt;node_36_0 -->
<g id="edge43" class="edge">
<title>node_32_0&#45;&gt;node_36_0</title>
<path fill="none" stroke="#000000" d="M554.9281,-913.9659C554.612,-906.0379 554.2563,-897.1132 553.9045,-888.2877"/>
<polygon fill="#000000" stroke="#000000" points="557.3916,-887.8911 553.4959,-878.0385 550.3971,-888.17 557.3916,-887.8911"/>
</g>
<!-- node_37_0 -->
<g id="node38" class="node">
<title>node_37_0</title>
<ellipse fill="none" stroke="#000000" cx="1018" cy="-840.5103" rx="55.7232" ry="37.4533"/>
<text text-anchor="middle" x="1018" y="-851.8103" font-family="Times,serif" font-size="14.00" fill="#000000">NOP</text>
<text text-anchor="middle" x="1018" y="-836.8103" font-family="Times,serif" font-size="14.00" fill="#000000">Send[1&#45;&gt;0]</text>
<text text-anchor="middle" x="1018" y="-821.8103" font-family="Times,serif" font-size="14.00" fill="#000000">i32</text>
</g>
<!-- node_33_0&#45;&gt;node_37_0 -->
<g id="edge44" class="edge">
<title>node_33_0&#45;&gt;node_37_0</title>
<path fill="none" stroke="#000000" d="M1018,-913.9659C1018,-906.0379 1018,-897.1132 1018,-888.2877"/>
<polygon fill="#000000" stroke="#000000" points="1021.5001,-888.0384 1018,-878.0385 1014.5001,-888.0385 1021.5001,-888.0384"/>
</g>
<!-- node_34_0&#45;&gt;node_35_0 -->
<g id="edge41" class="edge">
<title>node_34_0&#45;&gt;node_35_0</title>
<path fill="none" stroke="#000000" d="M178.3612,-915.0152C184.2622,-902.6789 191.4018,-887.7532 197.7362,-874.5106"/>
<polygon fill="#000000" stroke="#000000" points="201.0193,-875.758 202.1772,-865.2266 194.7046,-872.7373 201.0193,-875.758"/>
</g>
<!-- node_38_0 -->
<g id="node39" class="node">
<title>node_38_0</title>
<ellipse fill="none" stroke="#000000" cx="214" cy="-729.557" rx="55.7232" ry="37.4533"/>
<text text-anchor="middle" x="214" y="-740.857" font-family="Times,serif" font-size="14.00" fill="#000000">NOP</text>
<text text-anchor="middle" x="214" y="-725.857" font-family="Times,serif" font-size="14.00" fill="#000000">Send[2&#45;&gt;1]</text>
<text text-anchor="middle" x="214" y="-710.857" font-family="Times,serif" font-size="14.00" fill="#000000">i32</text>
</g>
<!-- node_35_0&#45;&gt;node_38_0 -->
<g id="edge45" class="edge">
<title>node_35_0&#45;&gt;node_38_0</title>
<path fill="none" stroke="#000000" d="M214,-813.368C214,-802.5418 214,-789.7477 214,-777.4589"/>
<polygon fill="#000000" stroke="#000000" points="217.5001,-777.3094 214,-767.3094 210.5001,-777.3094 217.5001,-777.3094"/>
</g>
<!-- node_36_0&#45;&gt;node_39_0 -->
<g id="edge48" class="edge">
<title>node_36_0&#45;&gt;node_39_0</title>
<path fill="none" stroke="#000000" d="M552,-802.7341C552,-764.215 552,-704.8215 552,-666.4848"/>
<polygon fill="#000000" stroke="#000000" points="555.5001,-666.2651 552,-656.2651 548.5001,-666.2652 555.5001,-666.2651"/>
</g>
<!-- node_37_0&#45;&gt;node_40_0 -->
<g id="edge51" class="edge">
<title>node_37_0&#45;&gt;node_40_0</title>
<path fill="none" stroke="#000000" d="M1013.6401,-802.9632C1009.7232,-772.7513 1003.1711,-729.3408 994,-692.0803 991.8019,-683.1496 988.9294,-673.6675 986.018,-664.8487"/>
<polygon fill="#000000" stroke="#000000" points="989.2828,-663.5782 982.7481,-655.2386 982.6559,-665.833 989.2828,-663.5782"/>
</g>
<!-- node_38_0&#45;&gt;node_41_0 -->
<g id="edge54" class="edge">
<title>node_38_0&#45;&gt;node_41_0</title>
<path fill="none" stroke="#000000" d="M223.9771,-692.4766C226.3309,-683.7288 228.8383,-674.4099 231.1848,-665.6889"/>
<polygon fill="#000000" stroke="#000000" points="234.6282,-666.3617 233.8467,-655.7957 227.8686,-664.5429 234.6282,-666.3617"/>
</g>
<!-- node_42_0 -->
<g id="node43" class="node">
<title>node_42_0</title>
<ellipse fill="none" stroke="#000000" cx="552" cy="-539.4701" rx="29.8983" ry="26.7407"/>
<text text-anchor="middle" x="552" y="-543.2701" font-family="Times,serif" font-size="14.00" fill="#000000">Sum</text>
<text text-anchor="middle" x="552" y="-528.2701" font-family="Times,serif" font-size="14.00" fill="#000000">i32</text>
</g>
<!-- node_39_0&#45;&gt;node_42_0 -->
<g id="edge55" class="edge">
<title>node_39_0&#45;&gt;node_42_0</title>
<path fill="none" stroke="#000000" d="M552,-602.2853C552,-594.2103 552,-585.207 552,-576.5961"/>
<polygon fill="#000000" stroke="#000000" points="555.5001,-576.3761 552,-566.3761 548.5001,-576.3762 555.5001,-576.3761"/>
</g>
<!-- node_43_0 -->
<g id="node44" class="node">
<title>node_43_0</title>
<ellipse fill="none" stroke="#000000" cx="780" cy="-539.4701" rx="29.8983" ry="26.7407"/>
<text text-anchor="middle" x="780" y="-543.2701" font-family="Times,serif" font-size="14.00" fill="#000000">Sum</text>
<text text-anchor="middle" x="780" y="-528.2701" font-family="Times,serif" font-size="14.00" fill="#000000">i32</text>
</g>
<!-- node_40_0&#45;&gt;node_43_0 -->
<g id="edge56" class="edge">
<title>node_40_0&#45;&gt;node_43_0</title>
<path fill="none" stroke="#000000" d="M942.4186,-614.9907C908.0734,-599.021 852.389,-573.1292 815.9793,-556.1996"/>
<polygon fill="#000000" stroke="#000000" points="817.2525,-552.9318 806.7091,-551.8892 814.3011,-559.2792 817.2525,-552.9318"/>
</g>
<!-- node_44_0 -->
<g id="node45" class="node">
<title>node_44_0</title>
<ellipse fill="none" stroke="#000000" cx="296" cy="-539.4701" rx="29.8983" ry="26.7407"/>
<text text-anchor="middle" x="296" y="-543.2701" font-family="Times,serif" font-size="14.00" fill="#000000">Sum</text>
<text text-anchor="middle" x="296" y="-528.2701" font-family="Times,serif" font-size="14.00" fill="#000000">i32</text>
</g>
<!-- node_41_0&#45;&gt;node_44_0 -->
<g id="edge57" class="edge">
<title>node_41_0&#45;&gt;node_44_0</title>
<path fill="none" stroke="#000000" d="M256.029,-604.6884C262.241,-594.5526 269.5302,-582.6593 276.1708,-571.8243"/>
<polygon fill="#000000" stroke="#000000" points="279.317,-573.3887 281.5584,-563.0336 273.3487,-569.7308 279.317,-573.3887"/>
</g>
<!-- node_46_0 -->
<g id="node47" class="node">
<title>node_46_0</title>
<ellipse fill="none" stroke="#000000" cx="552" cy="-439.1234" rx="28.0702" ry="26.7407"/>
<text text-anchor="middle" x="552" y="-442.9234" font-family="Times,serif" font-size="14.00" fill="#000000">Add</text>
<text text-anchor="middle" x="552" y="-427.9234" font-family="Times,serif" font-size="14.00" fill="#000000">i32</text>
</g>
<!-- node_42_0&#45;&gt;node_46_0 -->
<g id="edge59" class="edge">
<title>node_42_0&#45;&gt;node_46_0</title>
<path fill="none" stroke="#000000" d="M552,-512.5791C552,-501.4435 552,-488.3419 552,-476.3102"/>
<polygon fill="#000000" stroke="#000000" points="555.5001,-476.0887 552,-466.0887 548.5001,-476.0888 555.5001,-476.0887"/>
</g>
<!-- node_43_0&#45;&gt;node_46_0 -->
<g id="edge60" class="edge">
<title>node_43_0&#45;&gt;node_46_0</title>
<path fill="none" stroke="#000000" d="M752.9501,-527.565C711.653,-509.3894 632.8761,-474.7184 587.1845,-454.6087"/>
<polygon fill="#000000" stroke="#000000" points="588.5246,-451.3746 577.962,-450.5497 585.7048,-457.7815 588.5246,-451.3746"/>
</g>
<!-- node_45_0 -->
<g id="node46" class="node">
<title>node_45_0</title>
<ellipse fill="none" stroke="#000000" cx="412" cy="-439.1234" rx="55.7232" ry="37.4533"/>
<text text-anchor="middle" x="412" y="-450.4234" font-family="Times,serif" font-size="14.00" fill="#000000">NOP</text>
<text text-anchor="middle" x="412" y="-435.4234" font-family="Times,serif" font-size="14.00" fill="#000000">Send[2&#45;&gt;0]</text>
<text text-anchor="middle" x="412" y="-420.4234" font-family="Times,serif" font-size="14.00" fill="#000000">i32</text>
</g>
<!-- node_44_0&#45;&gt;node_45_0 -->
<g id="edge58" class="edge">
<title>node_44_0&#45;&gt;node_45_0</title>
<path fill="none" stroke="#000000" d="M317.5469,-520.8309C332.0923,-508.2482 351.7817,-491.2157 369.4196,-475.9579"/>
<polygon fill="#000000" stroke="#000000" points="372.0802,-478.2842 377.3533,-469.0948 367.5005,-472.9902 372.0802,-478.2842"/>
</g>
<!-- node_47_0 -->
<g id="node48" class="node">
<title>node_47_0</title>
<ellipse fill="none" stroke="#000000" cx="521" cy="-338.7767" rx="28.0702" ry="26.7407"/>
<text text-anchor="middle" x="521" y="-342.5767" font-family="Times,serif" font-size="14.00" fill="#000000">Add</text>
<text text-anchor="middle" x="521" y="-327.5767" font-family="Times,serif" font-size="14.00" fill="#000000">i32</text>
</g>
<!-- node_45_0&#45;&gt;node_47_0 -->
<g id="edge62" class="edge">
<title>node_45_0&#45;&gt;node_47_0</title>
<path fill="none" stroke="#000000" d="M444.9994,-408.7438C460.2256,-394.7264 478.1182,-378.2542 492.7165,-364.8148"/>
<polygon fill="#000000" stroke="#000000" points="495.4634,-367.0434 500.4499,-357.6954 490.7223,-361.8934 495.4634,-367.0434"/>
</g>
<!-- node_46_0&#45;&gt;node_47_0 -->
<g id="edge61" class="edge">
<title>node_46_0&#45;&gt;node_47_0</title>
<path fill="none" stroke="#000000" d="M544.0167,-413.2816C540.3929,-401.5514 536.0459,-387.48 532.1103,-374.7406"/>
<polygon fill="#000000" stroke="#000000" points="535.3597,-373.401 529.064,-364.8797 528.6716,-375.4672 535.3597,-373.401"/>
</g>
<!-- node_48_0 -->
<g id="node49" class="node">
<title>node_48_0</title>
<ellipse fill="none" stroke="#000000" cx="521" cy="-238.43" rx="55.7232" ry="37.4533"/>
<text text-anchor="middle" x="521" y="-249.73" font-family="Times,serif" font-size="14.00" fill="#000000">NOP</text>
<text text-anchor="middle" x="521" y="-234.73" font-family="Times,serif" font-size="14.00" fill="#000000">Send[0&#45;&gt;1]</text>
<text text-anchor="middle" x="521" y="-219.73" font-family="Times,serif" font-size="14.00" fill="#000000">i32</text>
</g>
<!-- node_47_0&#45;&gt;node_48_0 -->
<g id="edge63" class="edge">
<title>node_47_0&#45;&gt;node_48_0</title>
<path fill="none" stroke="#000000" d="M521,-311.8856C521,-303.9575 521,-295.0329 521,-286.2074"/>
<polygon fill="#000000" stroke="#000000" points="524.5001,-285.9581 521,-275.9582 517.5001,-285.9582 524.5001,-285.9581"/>
</g>
<!-- node_49_0 -->
<g id="node50" class="node">
<title>node_49_0</title>
<ellipse fill="none" stroke="#000000" cx="521" cy="-127.4767" rx="55.7232" ry="37.4533"/>
<text text-anchor="middle" x="521" y="-138.7767" font-family="Times,serif" font-size="14.00" fill="#000000">NOP</text>
<text text-anchor="middle" x="521" y="-123.7767" font-family="Times,serif" font-size="14.00" fill="#000000">Send[0&#45;&gt;2]</text>
<text text-anchor="middle" x="521" y="-108.7767" font-family="Times,serif" font-size="14.00" fill="#000000">i32</text>
</g>
<!-- node_48_0&#45;&gt;node_49_0 -->
<g id="edge64" class="edge">
<title>node_48_0&#45;&gt;node_49_0</title>
<path fill="none" stroke="#000000" d="M521,-200.8662C521,-192.6423 521,-183.8301 521,-175.267"/>
<polygon fill="#000000" stroke="#000000" points="524.5001,-175.0017 521,-165.0017 517.5001,-175.0017 524.5001,-175.0017"/>
</g>
<!-- node_50_0 -->
<g id="node51" class="node">
<title>node_50_0</title>
<polygon fill="#dc143c" stroke="#dc143c" points="548,-54 494,-54 494,-16 548,-16 548,-54"/>
<text text-anchor="middle" x="521" y="-38.8" font-family="Times,serif" font-size="14.00" fill="#000000">NOP</text>
<text text-anchor="middle" x="521" y="-23.8" font-family="Times,serif" font-size="14.00" fill="#000000">i32</text>
</g>
<!-- node_49_0&#45;&gt;node_50_0 -->
<g id="edge65" class="edge">
<title>node_49_0&#45;&gt;node_50_0</title>
<path fill="none" stroke="#000000" d="M521,-89.8629C521,-81.3096 521,-72.3482 521,-64.2059"/>
<polygon fill="#000000" stroke="#000000" points="524.5001,-64.0771 521,-54.0771 517.5001,-64.0771 524.5001,-64.0771"/>
</g>
</g>
</svg>
